<svg xmlns="http://www.w3.org/2000/svg" width="612" height="792" viewBox="0 0 612 792"><path fill="#240010" d="M326.25 424.85l25.932 7.084L368 451.58 339 443l-12.75-17.67"/><path fill="#240010" d="M326.25 424.85l25.932 7.084L368 451.58 339 443l-12.75-17.67"/><path fill="#1145F2" d="M335.74 501.023l-15.573-1.853 6.333 8.583 28.957 4.19-17.644-12.23"/><path fill="#1145F2" d="M335.74 501.023l-15.573-1.853 6.333 8.583 28.957 4.19-17.644-12.23"/><path fill="#1145F2" d="M321.354 508.854l-9.021 9.273 28.935-.797 12.815-11.57H326.5"/><path fill="#1145F2" d="M321.354 508.854l-9.021 9.273 28.935-.797 12.815-11.57H326.5"/><path fill="#6157FF" d="M209.294 545.043l-12.853 8.332 69.229-3.045c2.3-2.243 57.078-31.768 57.078-31.768l-26.173-4.383"/><path fill="#6157FF" d="M209.294 545.043l-12.853 8.332 69.229-3.045c2.3-2.243 57.078-31.768 57.078-31.768l-26.173-4.383"/><path fill="#F9A089" d="M331.092 299.001l-14.425 12.937 6.499 20.895 24.105-20.896-16.18-12.936"/><path fill="#F9A089" d="M331.092 299.001l-14.425 12.937 6.499 20.895 24.105-20.896-16.18-12.936"/><path fill="#FEC88A" d="M295.167 361.334l40.573-6.06-56.073-8.248L260 348.83z"/><path fill="#FEC88A" d="M295.167 361.334l40.573-6.06-56.073-8.248L260 348.83z"/><path fill="#E48BE1" d="M296.575 368.028l68.758 6.222 42.456 13.167H306z"/><path fill="#E48BE1" d="M296.575 368.028l68.758 6.222 42.456 13.167H306z"/><path fill="#96ADFF" d="M226.958 559.75l76.582-7.5 26.13-6.25s-41.42-5.5-42.17-5-85.83 9.33-85.83 9.33l25.288 12.17"/><path fill="#96ADFF" d="M226.958 559.75l76.582-7.5 26.13-6.25s-41.42-5.5-42.17-5-85.83 9.33-85.83 9.33l25.288 12.17"/><path fill="#FEC1B2" d="M401 372.11l-56-1.945-24.833-11.277 55.993-16.138L401 370.165"/><path fill="#FEC1B2" d="M401 372.11l-56-1.945-24.833-11.277 55.993-16.138L401 370.165"/><path fill="#E7BCFB" d="M451.625 469.25L426.985 507s-47.36 27.117-48.235 25.746 41.584-54.081 41.584-54.081l29.978-9.415"/><path fill="#E7BCFB" d="M451.625 469.25L426.985 507s-47.36 27.117-48.235 25.746 41.584-54.081 41.584-54.081l29.978-9.415"/><path fill="#FFF09D" d="M488.717 616.071l3.94 64.929-32.907 47.9 8.5-73.65 20.467-39.179"/><path fill="#FFF09D" d="M488.717 616.071l3.94 64.929-32.907 47.9 8.5-73.65 20.467-39.179"/><path fill="#F9B94A" d="M377.875 530.583L370.5 561.5l-46.003 21.875L343 560.25l34.875-29.667"/><path fill="#F9B94A" d="M377.875 530.583L370.5 561.5l-46.003 21.875L343 560.25l34.875-29.667M488.717 616.071L484 706.5l-24.25 22.4-2.25-86.768 30-26.06"/><path fill="#F9B94A" d="M488.717 616.071L484 706.5l-24.25 22.4-2.25-86.768 30-26.06"/><path fill="#FFF09D" d="M165.208 634.906l-57.792 25.927 29.806-31.392 42.612-20.462-10.5 23.35"/><path fill="#FFF09D" d="M165.208 634.906l-57.792 25.927 29.806-31.392 42.612-20.462-10.5 23.35"/><path fill="#FFC65E" d="M83.667 666.334h18.666l5.083-5.501-9.833-1.499-13.916 7"/><path fill="#FFC65E" d="M83.667 666.334h18.666l5.083-5.501-9.833-1.499-13.916 7"/><path fill="#002157" d="M113.75 553.668l21.167-10.334-7.334-2.334-36.413 3.75 16.246 10"/><path fill="#002157" d="M113.75 553.668l21.167-10.334-7.334-2.334-36.413 3.75 16.246 10"/><path fill="#320024" d="M73 499.17l14.5 4.892L90 514.67l-10.416 1.666"/><path fill="#320024" d="M73 499.17l14.5 4.892L90 514.67l-10.416 1.666"/><path fill="#712264" d="M141.25 520l10.25 9.417L161.792 505l-13.682-16.75-34.11 4.751-24 15.833v5.836"/><path fill="#712264" d="M141.25 520l10.25 9.417L161.792 505l-13.682-16.75-34.11 4.751-24 15.833v5.836"/><path fill="#E88465" d="M158.375 354.75l5.885.523 9.337-6.235-14.378 3.118"/><path fill="#E88465" d="M158.375 354.75l5.885.523 9.337-6.235-14.378 3.118"/><path fill="#D56F4C" d="M173.958 310.167l-6.08 15.369 4.789 4.798 6.833-11.606"/><path fill="#D56F4C" d="M173.958 310.167l-6.08 15.369 4.789 4.798 6.833-11.606M260 348.83l42.583-3.906 20.583-12.09-54.416 7.723"/><path fill="#D56F4C" d="M260 348.83l42.583-3.906 20.583-12.09-54.416 7.723"/><path fill="#F2CBAE" d="M323.166 332.833l-43.499 6.417-49-11.25 56.583-4.319"/><path fill="#F2CBAE" d="M323.166 332.833l-43.499 6.417-49-11.25 56.583-4.319"/><path fill="#F69D82" d="M211.88 391.5l54.87-4.578 29.833-9.755-29.833-2.917-54.87 17.25"/><path fill="#F69D82" d="M211.88 391.5l54.87-4.578 29.833-9.755-29.833-2.917-54.87 17.25"/><path fill="#C26D7C" d="M178.167 448.334s21.583 11.246 22.333 10.581S264.167 443 264.167 443l-36.667-4.785-49.333 9.285"/><path fill="#C26D7C" d="M178.167 448.334s21.583 11.246 22.333 10.581S264.167 443 264.167 443l-36.667-4.785-49.333 9.285"/><path fill="#CB5E7C" d="M368 451.58L359.75 487l-11.438 18.75-8.145-13.96 27.24-40.59"/><path fill="#CB5E7C" d="M368 451.58L359.75 487l-11.438 18.75-8.145-13.96 27.24-40.59"/><path fill="#413D9E" d="M312.333 460.833s19.798 5.417 21.357 5.417S368 451.58 368 451.58l-49.5 2.92-6.167 6.333"/><path fill="#413D9E" d="M312.333 460.833s19.798 5.417 21.357 5.417S368 451.58 368 451.58l-49.5 2.92-6.167 6.333"/><path fill="#0B3168" d="M299.396 446l-10.896 5.562-25.603-9.812 30.769-2.25 5.73 6.5"/><path fill="#0B3168" d="M299.396 446l-10.896 5.562-25.603-9.812 30.769-2.25 5.73 6.5"/><path fill="#0A1D35" d="M299.396 446l15.104 8.5 52.906-3.3-41.156-10.7-26.854 5.5"/><path fill="#0A1D35" d="M299.396 446l15.104 8.5 52.906-3.3-41.156-10.7-26.854 5.5"/><path fill="#240010" d="M326.25 424.85l30.75 8.4 19.16-7.92-6.91-5.413-43 4.933"/><path fill="#240010" d="M326.25 424.85l30.75 8.4 19.16-7.92-6.91-5.413-43 4.933"/><path fill="#230035" d="M264.167 443l48.166-23.083 68.997-11.207-55.08 16.14L264.167 443"/><path fill="#230035" d="M264.167 443l48.166-23.083 68.997-11.207-55.08 16.14L264.167 443"/><path fill="#032246" d="M302.583 410.667l23.667 9.583 53.703-11.137-57.205-3.218-20.165 4.772"/><path fill="#032246" d="M302.583 410.667l23.667 9.583 53.703-11.137-57.205-3.218-20.165 4.772M381.33 408.71l-20.83-8.21-79.083-3 38.762 8.27 61.151 2.94"/><path fill="#032246" d="M381.33 408.71l-20.83-8.21-79.083-3 38.762 8.27 61.151 2.94"/><path fill="#1E2587" d="M211.88 391.5l59.37-3 25.333-11.333-28.833-4.917-55.87 19.25"/><path fill="#1E2587" d="M211.88 391.5l59.37-3 25.333-11.333-28.833-4.917-55.87 19.25"/><path fill="#C26D7C" d="M458.104 404l3.358 6.127 19.42.54v-5.565L458.105 404"/><path fill="#C26D7C" d="M458.104 404l3.358 6.127 19.42.54v-5.565L458.105 404"/><path fill="#06023A" d="M458.104 404l-31.814-10.25-25.29 4.001 34 18.702L458.104 404"/><path fill="#06023A" d="M458.104 404l-31.814-10.25-25.29 4.001 34 18.702L458.104 404"/><path fill="#CD5470" d="M512.125 162.875s.61 54.375.742 55.875 8.133 12 8.133 12V201l-8.875-38.125"/><path fill="#CD5470" d="M512.125 162.875s.61 54.375.742 55.875 8.133 12 8.133 12V201l-8.875-38.125"/><path fill="#D73373" d="M539.75 221.125L524.625 239l-7.25-8.938 11.188-11.312"/><path fill="#D73373" d="M539.75 221.125L524.625 239l-7.25-8.938 11.188-11.312"/><path fill="#10949A" d="M474.75 175.5l38.117 75.948L480.75 253 470 243.75"/><path fill="#10949A" d="M474.75 175.5l38.117 75.948L480.75 253 470 243.75"/><path fill="#A42F57" d="M517.333 132.667l-5.208 7.583v22.625L521 149.25z"/><path fill="#A42F57" d="M517.333 132.667l-5.208 7.583v22.625L521 149.25z"/><path fill="#F8CE84" d="M451.625 469.25c-.125.375-1.313 84.125-1.313 84.125l20.813-115.625-19.5 31.5z"/><path fill="#F8CE84" d="M451.625 469.25c-.125.375-1.313 84.125-1.313 84.125l20.813-115.625-19.5 31.5z"/><path fill="#FFC16B" d="M64.667 587.75l2.916 33 60.49 16.143z"/><path fill="#FFC16B" d="M64.667 587.75l2.916 33 60.49 16.143z"/><path fill="#BD3035" d="M89.462 514.179l.904 31.598L155 529.71z"/><path fill="#BD3035" d="M89.462 514.179l.904 31.598L155 529.71z"/><path fill="#639CE9" d="M261.416 645.676L192.5 618.98l11.436-10.8z"/><path fill="#639CE9" d="M261.416 645.676L192.5 618.98l11.436-10.8z"/><path fill="#0C868C" d="M362.25 134.5l81.083 60.167L474.75 175.5z"/><path fill="#0C868C" d="M362.25 134.5l81.083 60.167L474.75 175.5z"/><path fill="#93F8F7" d="M362.25 134.5L301 111l126 19.667z"/><path fill="#93F8F7" d="M362.25 134.5L301 111l126 19.667z"/><path fill="#D5FAFE" d="M301 111l126 19.667-54.334-18.28z"/><path fill="#D5FAFE" d="M301 111l126 19.667-54.334-18.28z"/><path fill="#4BCED1" d="M362.25 134.5L288 124.667 301 111z"/><path fill="#4BCED1" d="M362.25 134.5L288 124.667 301 111z"/><path fill="#FCFD9F" d="M301 111l-90 33.667 77-20z"/><path fill="#FCFD9F" d="M301 111l-90 33.667 77-20z"/><path fill="#F8F95A" d="M288 124.667s-76.5 19.875-77 20 .25 26.25 0 25.5 77-45.5 77-45.5z"/><path fill="#F8F95A" d="M288 124.667s-76.5 19.875-77 20 .25 26.25 0 25.5 77-45.5 77-45.5z"/><path fill="#FEDBA7" d="M211 144.667l-41.667 71.667L211 170.167z"/><path fill="#FEDBA7" d="M211 144.667l-41.667 71.667L211 170.167z"/><path fill="#EBA840" d="M211 170.167l-41.667 46.167s13.128 14.301 13.128 13.635S211 170.167 211 170.167z"/><path fill="#EBA840" d="M211 170.167l-41.667 46.167s13.128 14.301 13.128 13.635S211 170.167 211 170.167z"/><path fill="#FFCDA0" d="M169.333 216.334l4.334 87 8.794-73.365z"/><path fill="#FFCDA0" d="M169.333 216.334l4.334 87 8.794-73.365z"/><path fill="#DD620B" d="M182.461 229.969l-8.794 73.365 17.833 9.249z"/><path fill="#DD620B" d="M182.461 229.969l-8.794 73.365 17.833 9.249z"/><path fill="#FF95C9" d="M83.667 173.001l51.666 87.832-17.726-59.999z"/><path fill="#FF95C9" d="M83.667 173.001l51.666 87.832-17.726-59.999z"/><path fill="#EBFCFE" d="M169.93 227.334l-52.323-26.5 54.06 61.167z"/><path fill="#EBFCFE" d="M169.93 227.334l-52.323-26.5 54.06 61.167z"/><path fill="#A40855" d="M117.607 200.834l54.06 61.167 1.017 21.59z"/><path fill="#A40855" d="M117.607 200.834l54.06 61.167 1.017 21.59z"/><path fill="#900E4E" d="M154.837 256.775l-19.504 4.058 38.334 42.501z"/><path fill="#900E4E" d="M154.837 256.775l-19.504 4.058 38.334 42.501z"/><path fill="#FBBFDC" d="M135.333 260.833l38.334 42.501-.198 5-17.969-9.333z"/><path fill="#FBBFDC" d="M135.333 260.833l38.334 42.501-.198 5-17.969-9.333z"/><path fill="#C3568B" d="M117.607 200.834l17.726 60 19.504-4.059z"/><path fill="#C3568B" d="M117.607 200.834l17.726 60 19.504-4.059z"/><path fill="#7A2D51" d="M154.837 256.775s18.663 46.642 18.83 46.56-.983-19.743-.983-19.743l-17.847-26.817z"/><path fill="#7A2D51" d="M154.837 256.775s18.663 46.642 18.83 46.56-.983-19.743-.983-19.743l-17.847-26.817z"/><path fill="#D56F4C" d="M173.667 303.334c-.07-.04-.09-.06-.05-.06.02 0 .03.02.05.06z"/><path fill="#D56F4C" d="M173.667 303.334c-.07-.04-.09-.06-.05-.06.02 0 .03.02.05.06z"/><path fill="#F1C57D" d="M173.597 307.959L157 330.334l1.375 24.416z"/><path fill="#F1C57D" d="M173.597 307.959L157 330.334l1.375 24.416z"/><path fill="#E88465" d="M173.958 332.167zM173.958 332.167z"/><path fill="#D28F42" d="M171.667 350.78l-13.292 3.97 4.125 5.018z"/><path fill="#D28F42" d="M171.667 350.78l-13.292 3.97 4.125 5.018z"/><path fill="#C23634" d="M191.5 312.583s-19 17.918-18.833 17.751 24.235-11.44 23.985-11.606-5.152-6.145-5.152-6.145z"/><path fill="#C23634" d="M191.5 312.583s-19 17.918-18.833 17.751 24.235-11.44 23.985-11.606-5.152-6.145-5.152-6.145z"/><path fill="#A30754" d="M187.67 277.583l3.83 35 9.305 11.098 18.862-11.098z"/><path fill="#A30754" d="M187.67 277.583l3.83 35 9.305 11.098 18.862-11.098z"/><path fill="#6BD4DE" d="M185.3 255.907l2.37 21.676 31.997 35-.834-28.996z"/><path fill="#6BD4DE" d="M185.3 255.907l2.37 21.676 31.997 35-.834-28.996z"/><path fill="#EBFCFE" d="M183.048 235.33l2.251 20.577 33.534 27.68 22.75-16.754z"/><path fill="#EBFCFE" d="M183.048 235.33l2.251 20.577 33.534 27.68 22.75-16.754z"/><path fill="#F8FEFF" d="M241.583 266.833l11 28.084-33.75-11.33z"/><path fill="#F8FEFF" d="M241.583 266.833l11 28.084-33.75-11.33z"/><path fill="#0BC0D0" d="M218.833 283.587l.834 28.996 32.916-17.666z"/><path fill="#0BC0D0" d="M218.833 283.587l.834 28.996 32.916-17.666z"/><path fill="#D5F1F5" d="M241.583 266.833l11 28.084 40.584-2.583z"/><path fill="#D5F1F5" d="M241.583 266.833l11 28.084 40.584-2.583z"/><path fill="#FFDEA9" d="M252.583 294.917l-32.916 17.666 11 15.417z"/><path fill="#FFDEA9" d="M252.583 294.917l-32.916 17.666 11 15.417z"/><path fill="#FFD086" d="M230.667 328l-29.862-4.319 18.862-11.098z"/><path fill="#FFD086" d="M230.667 328l-29.862-4.319 18.862-11.098z"/><path fill="#FBC094" d="M230.667 328l21.916-33.083 20.01-1.273z"/><path fill="#FBC094" d="M230.667 328l21.916-33.083 20.01-1.273z"/><path fill="#F3BC82" d="M230.667 328s41.676-34.44 41.926-34.356 20.574-1.31 20.574-1.31L230.667 328z"/><path fill="#F3BC82" d="M230.667 328s41.676-34.44 41.926-34.356 20.574-1.31 20.574-1.31L230.667 328z"/><path fill="#9C1112" d="M196.652 318.728l-23.985 11.606 16.666 4.04 11.472-10.693z"/><path fill="#9C1112" d="M196.652 318.728l-23.985 11.606 16.666 4.04 11.472-10.693z"/><path fill="#FED382" d="M171.667 350.78l17.666-16.406-16.666-4.04z"/><path fill="#FED382" d="M171.667 350.78l17.666-16.406-16.666-4.04zM334.834 297l-104.167 31 62.5-35.666z"/><path fill="#FED382" d="M334.834 297l-104.167 31 62.5-35.666z"/><path fill="#FFF6DE" d="M293.167 292.334L334.834 297l30.499-10.999z"/><path fill="#FFF6DE" d="M293.167 292.334L334.834 297l30.499-10.999z"/><path fill="#F69D82" d="M230.667 328l92.499 4.833L334.834 297z"/><path fill="#F69D82" d="M230.667 328l92.499 4.833L334.834 297z"/><path fill="#FFDEA9" d="M200.805 323.681s-45.638 42.486-45.472 42.486S230.667 328 230.667 328l-29.862-4.319z"/><path fill="#FFDEA9" d="M200.805 323.681s-45.638 42.486-45.472 42.486S230.667 328 230.667 328l-29.862-4.319z"/><path fill="#E88465" d="M173.597 307.959l-15.222 46.791 13.292-3.97z"/><path fill="#E88465" d="M173.597 307.959l-15.222 46.791 13.292-3.97z"/><path fill="#FEC88A" d="M230.667 328l-75.334 38.167L211.88 391.5z"/><path fill="#FEC88A" d="M230.667 328l-75.334 38.167L211.88 391.5z"/><path fill="#DD9F84" d="M230.667 328l-18.787 63.5s48.495-42.67 48.12-42.67S230.667 328 230.667 328z"/><path fill="#DD9F84" d="M230.667 328l-18.787 63.5s48.495-42.67 48.12-42.67S230.667 328 230.667 328z"/><path fill="#F2CBAE" d="M230.667 328L260 348.83s63.666-16.122 63.166-15.997S230.667 328 230.667 328z"/><path fill="#F2CBAE" d="M230.667 328L260 348.83s63.666-16.122 63.166-15.997S230.667 328 230.667 328z"/><path fill="#FEC1B2" d="M379.951 318.417L260 348.83s142.167 23.92 141.917 23.42c-.107-.215.65-11.3 0-18.75l-21.966-35.083z"/><path fill="#FEC1B2" d="M379.951 318.417L260 348.83s142.167 23.92 141.917 23.42c-.107-.215.65-11.3 0-18.75l-21.966-35.083z"/><path fill="#F9A089" d="M334.834 297s-11.918 36.208-11.668 35.833 57.16-14.291 56.785-14.416S334.834 297 334.834 297z"/><path fill="#F9A089" d="M334.834 297s-11.918 36.208-11.668 35.833 57.16-14.291 56.785-14.416S334.834 297 334.834 297z"/><path fill="#F77E7B" d="M334.834 297l45.117 21.417L418.333 299z"/><path fill="#F77E7B" d="M334.834 297l45.117 21.417L418.333 299z"/><path fill="#FFEDBC" d="M365.333 286.001c-.583.125-30.999 10.999-30.499 10.999s83.999 1.96 83.499 2.001-53-13-53-13z"/><path fill="#FFEDBC" d="M365.333 286.001c-.583.125-30.999 10.999-30.499 10.999s83.999 1.96 83.499 2.001-53-13-53-13z"/><path fill="#BA6850" d="M418.333 299.001l-38.382 19.416 21.966 35.083v-10.75l14.172-13.79z"/><path fill="#BA6850" d="M418.333 299.001l-38.382 19.416 21.966 35.083v-10.75l14.172-13.79z"/><path fill="#FEC88A" d="M260 348.83c1 .375 36.583 28.337 36.583 28.337s24.209-18.03 23.584-18.28S260 348.83 260 348.83z"/><path fill="#FEC88A" d="M260 348.83c1 .375 36.583 28.337 36.583 28.337s24.209-18.03 23.584-18.28S260 348.83 260 348.83z"/><path fill="#4A066E" d="M155.333 366.167L141 385.33s10.83 22.84 10.83 22.34 3.503-41.503 3.503-41.503z"/><path fill="#4A066E" d="M155.333 366.167L141 385.33s10.83 22.84 10.83 22.34 3.503-41.503 3.503-41.503z"/><path fill="#750DAD" d="M141 385.33c-.125.357-6.795 26.125-6.17 26s17-3.66 17-3.66L141 385.33z"/><path fill="#750DAD" d="M141 385.33c-.125.357-6.795 26.125-6.17 26s17-3.66 17-3.66L141 385.33z"/><path fill="#250537" d="M134.83 411.33l6.17 9.504 10.83-13.164z"/><path fill="#250537" d="M134.83 411.33l6.17 9.504 10.83-13.164z"/><path fill="#E48BE1" d="M296.583 377.167L281.417 397.5 401 387.417z"/><path fill="#E48BE1" d="M296.583 377.167L281.417 397.5 401 387.417z"/><path fill="#FFD97F" d="M320.167 358.888s-24.084 18.154-23.584 18.279 105.709-4.917 105.334-4.917-81.75-13.362-81.75-13.362z"/><path fill="#FFD97F" d="M320.167 358.888s-24.084 18.154-23.584 18.279 105.709-4.917 105.334-4.917-81.75-13.362-81.75-13.362z"/><path fill="#FF9DE4" d="M401.917 372.25c0 .375-.917 15.167-.917 15.167l-104.417-10.25 105.334-4.917z"/><path fill="#FF9DE4" d="M401.917 372.25c0 .375-.917 15.167-.917 15.167l-104.417-10.25 105.334-4.917z"/><path fill="#DD98B1" d="M418.333 299.001l15.292-.751.622 12.615-10.935 10.58z"/><path fill="#DD98B1" d="M418.333 299.001l15.292-.751.622 12.615-10.935 10.58z"/><path fill="#7E375B" d="M418.333 299.001l-2.244 29.959 7.224-7.515z"/><path fill="#7E375B" d="M418.333 299.001l-2.244 29.959 7.224-7.515z"/><path fill="#D7826E" d="M433.625 298.25l.622 12.615 9.02-8.53z"/><path fill="#D7826E" d="M433.625 298.25l.622 12.615 9.02-8.53z"/><path fill="#FFDDD4" d="M418.335 298.858s14.917-.75 15.292-.75 27.835-73.59 27.835-73.59l-5.287-6.664-37.84 81.004z"/><path fill="#FFDDD4" d="M418.335 298.858s14.917-.75 15.292-.75 27.835-73.59 27.835-73.59l-5.287-6.664-37.84 81.004z"/><path fill="#C3655B" d="M465.25 234.188l4.75 9.562-4.75 37.375-21.982 21.21-9.643-4.085z"/><path fill="#C3655B" d="M465.25 234.188l4.75 9.562-4.75 37.375-21.982 21.21-9.643-4.085z"/><path fill="#EE9680" d="M460.833 225.666l4.417 8.522-31.625 64.062z"/><path fill="#EE9680" d="M460.833 225.666l4.417 8.522-31.625 64.062z"/><path fill="#647EE8" d="M470 243.75c.375 0 37.666 5.625 37.666 5.625l-42.416 31.75L470 243.75z"/><path fill="#647EE8" d="M470 243.75c.375 0 37.666 5.625 37.666 5.625l-42.416 31.75L470 243.75z"/><path fill="#30ADB2" d="M474.75 175.5l-31.417 19.167S470.25 243.375 470 243.75s4.75-68.25 4.75-68.25z"/><path fill="#30ADB2" d="M474.75 175.5l-31.417 19.167S470.25 243.375 470 243.75s4.75-68.25 4.75-68.25z"/><path fill="#10949A" d="M474.75 175.5c-.125.5-5.25 68.25-4.75 68.25s38.541 5.5 37.666 5.625S474.75 175.5 474.75 175.5z"/><path fill="#10949A" d="M474.75 175.5c-.125.5-5.25 68.25-4.75 68.25s38.541 5.5 37.666 5.625S474.75 175.5 474.75 175.5z"/><path fill="#F59C91" d="M474.75 175.5c.375-.25 27.25-49.875 27.125-49.5s-18.209 70-18.209 70l-8.916-20.5z"/><path fill="#F59C91" d="M474.75 175.5c.375-.25 27.25-49.875 27.125-49.5s-18.209 70-18.209 70l-8.916-20.5z"/><path fill="#C94D3F" d="M501.875 126l-18.209 70 28.459-33.125z"/><path fill="#C94D3F" d="M501.875 126l-18.209 70 28.459-33.125z"/><path fill="#AE004A" d="M501.875 126c.375.083 15.458 6.667 15.458 6.667l-5.208 30.208L501.875 126z"/><path fill="#AE004A" d="M501.875 126c.375.083 15.458 6.667 15.458 6.667l-5.208 30.208L501.875 126z"/><path fill="#A42F57" d="M517.333 132.667c-.125.063-5.208 30.208-5.208 30.208l25 11.625-19.792-41.833z"/><path fill="#A42F57" d="M517.333 132.667c-.125.063-5.208 30.208-5.208 30.208l25 11.625-19.792-41.833z"/><path fill="#5E2C82" d="M512.125 162.875L483.666 196l9.834 22.75z"/><path fill="#5E2C82" d="M512.125 162.875L483.666 196l9.834 22.75z"/><path fill="#071B48" d="M512.125 162.875S493.021 218.25 493.5 218.75s14.041 30.25 14.166 30.625S521 230.75 521 230.75l-8.875-67.875z"/><path fill="#071B48" d="M512.125 162.875S493.021 218.25 493.5 218.75s14.041 30.25 14.166 30.625S521 230.75 521 230.75l-8.875-67.875z"/><path fill="#CD5470" d="M512.125 162.875s25 11.5 25 11.625S521 230.75 521 230.75l-8.875-67.875z"/><path fill="#CD5470" d="M512.125 162.875s25 11.5 25 11.625S521 230.75 521 230.75l-8.875-67.875z"/><path fill="#D73373" d="M537.125 174.5C537 174.875 521 230.75 521 230.75l18.75-9.625-2.625-46.625z"/><path fill="#D73373" d="M537.125 174.5C537 174.875 521 230.75 521 230.75l18.75-9.625-2.625-46.625z"/><path fill="#B25147" d="M521 230.75c.625.25 19-10.75 18.75-9.625s-22.375 74.543-22.375 74.543L521 230.75z"/><path fill="#B25147" d="M521 230.75c.625.25 19-10.75 18.75-9.625s-22.375 74.543-22.375 74.543L521 230.75z"/><path fill="#9E166C" d="M521 230.75s-13.32 33.286-13.32 33.9 1.654 38.475 1.654 38.475l8.041-7.457L521 230.75z"/><path fill="#9E166C" d="M521 230.75s-13.32 33.286-13.32 33.9 1.654 38.475 1.654 38.475l8.041-7.457L521 230.75z"/><path fill="#391A62" d="M521 230.75l-13.334 18.625.015 15.274z"/><path fill="#391A62" d="M521 230.75l-13.334 18.625.015 15.274z"/><path fill="#3C58D5" d="M507.666 249.375s-42.791 31.5-42.416 31.75 43.959 22.625 44.084 22-1.668-53.75-1.668-53.75z"/><path fill="#3C58D5" d="M507.666 249.375s-42.791 31.5-42.416 31.75 43.959 22.625 44.084 22-1.668-53.75-1.668-53.75z"/><path fill="#2C3B7E" d="M465.25 281.125c-.5.125-64.27 61.75-63.333 61.625S509.959 303 509.334 303.125s-44.084-22-44.084-22z"/><path fill="#2C3B7E" d="M465.25 281.125c-.5.125-64.27 61.75-63.333 61.625S509.959 303 509.334 303.125s-44.084-22-44.084-22z"/><path fill="#00032F" d="M509.334 303.125L458.104 404l45.563-42.666z"/><path fill="#00032F" d="M509.334 303.125L458.104 404l45.563-42.666z"/><path fill="#06023A" d="M503.667 361.334S457.604 403.875 458.104 404s24.229 7.334 24.229 7.334l21.334-50z"/><path fill="#06023A" d="M503.667 361.334S457.604 403.875 458.104 404s24.229 7.334 24.229 7.334l21.334-50z"/><path fill="#300032" d="M458.104 404c-.375.5-24.729 18.5-24.229 18.5s48.458-11.166 48.458-11.166L458.103 404z"/><path fill="#300032" d="M458.104 404c-.375.5-24.729 18.5-24.229 18.5s48.458-11.166 48.458-11.166L458.103 404z"/><path fill="#0D0351" d="M401 397.751c.5.182 57.104 6.249 57.104 6.249s-23.854 18.75-24.229 18.5S401 397.751 401 397.751z"/><path fill="#0D0351" d="M401 397.751c.5.182 57.104 6.249 57.104 6.249s-23.854 18.75-24.229 18.5S401 397.751 401 397.751z"/><path fill="#F5CA9D" d="M433.875 422.5l36.063-7.957-.563 27.207z"/><path fill="#F5CA9D" d="M433.875 422.5l36.063-7.957-.563 27.207z"/><path fill="#FFE6A9" d="M485.79 403.001l-3.457 8.333-12.396 3.209-.562 27.207L535 590.375z"/><path fill="#FFE6A9" d="M485.79 403.001l-3.457 8.333-12.396 3.209-.562 27.207L535 590.375z"/><path fill="#F8BB9F" d="M433.875 422.5l17.75 46.75 17.75-27.5z"/><path fill="#F8BB9F" d="M433.875 422.5l17.75 46.75 17.75-27.5z"/><path fill="#BD5362" d="M427 416.917c-.125.375.524 18.24.524 18.24l6.351-12.657-6.875-5.583z"/><path fill="#BD5362" d="M427 416.917c-.125.375.524 18.24.524 18.24l6.351-12.657-6.875-5.583z"/><path fill="#983DC3" d="M401.41 386.444c-.13.391-15.383 38.278-15.383 38.278l43.525 11.503-28.142-39.004v-10.777z"/><path fill="#983DC3" d="M401.41 386.444c-.13.391-15.383 38.278-15.383 38.278l43.525 11.503-28.142-39.004v-10.777z"/><path fill="#64357B" d="M401 387.417l-19.67 21.293 5.17 15.415z"/><path fill="#64357B" d="M401 387.417l-19.67 21.293 5.17 15.415z"/><path fill="#0C4D84" d="M381.33 408.71c.292.375 5.17 15.415 5.17 15.415L368 451.58l13.33-42.87z"/><path fill="#0C4D84" d="M381.33 408.71c.292.375 5.17 15.415 5.17 15.415L368 451.58l13.33-42.87z"/><path fill="#CF67FF" d="M386.5 424.125s41.274 10.781 41.024 11.031-49.649 96.219-49.649 96.219l8.625-107.25z"/><path fill="#CF67FF" d="M386.5 424.125s41.274 10.781 41.024 11.031-49.649 96.219-49.649 96.219l8.625-107.25z"/><path fill="#E7BCFB" d="M433.875 422.5l17.75 46.75-73.75 62.125z"/><path fill="#E7BCFB" d="M433.875 422.5l17.75 46.75-73.75 62.125z"/><path fill="#8256F3" d="M386.5 424.125l-38.188 81.625 29.563 25.625z"/><path fill="#8256F3" d="M386.5 424.125l-38.188 81.625 29.563 25.625z"/><path fill="#230035" d="M326.25 424.85l55.08-16.14-5.17 16.62z"/><path fill="#230035" d="M326.25 424.85l55.08-16.14-5.17 16.62z"/><path fill="#070228" d="M326.25 424.85l49.91.48-8.16 26.25z"/><path fill="#070228" d="M326.25 424.85l49.91.48-8.16 26.25z"/><path fill="#032246" d="M302.583 410.667c.375.207 78.872-2.082 78.747-1.957S264.167 443 264.167 443l38.416-32.333z"/><path fill="#032246" d="M302.583 410.667c.375.207 78.872-2.082 78.747-1.957S264.167 443 264.167 443l38.416-32.333z"/><path fill="#3E448E" d="M281.417 397.5l99.913 11.21-78.747 1.957z"/><path fill="#3E448E" d="M281.417 397.5l99.913 11.21-78.747 1.957z"/><path fill="#1E2587" d="M281.417 397.5L401 387.417l-19.67 21.293z"/><path fill="#1E2587" d="M281.417 397.5L401 387.417l-19.67 21.293z"/><path fill="#4069A5" d="M281.417 397.5l13.75 19.75 7.416-6.583z"/><path fill="#4069A5" d="M281.417 397.5l13.75 19.75 7.416-6.583z"/><path fill="#2C4569" d="M281.417 397.5c.11.625-17.25 45.5-17.25 45.5l31-25.75-13.75-19.75z"/><path fill="#2C4569" d="M281.417 397.5c.11.625-17.25 45.5-17.25 45.5l31-25.75-13.75-19.75z"/><path fill="#240010" d="M326.25 424.85S298.646 446 299.396 446 368 451.58 368 451.58l-41.75-26.73z"/><path fill="#240010" d="M326.25 424.85S298.646 446 299.396 446 368 451.58 368 451.58l-41.75-26.73z"/><path fill="#032248" d="M264.167 443c.5.25 48.166 17.833 48.166 17.833L368 451.58 264.167 443z"/><path fill="#032248" d="M264.167 443c.5.25 48.166 17.833 48.166 17.833L368 451.58 264.167 443z"/><path fill="#0B3168" d="M312.333 460.833c.375 0 56.042-9.753 55.667-9.253s-27.834 42.087-27.834 42.087l-27.833-32.834z"/><path fill="#0B3168" d="M312.333 460.833c.375 0 56.042-9.753 55.667-9.253s-27.834 42.087-27.834 42.087l-27.833-32.834z"/><path fill="#413D9E" d="M368 451.58l-27.834 42.087 8.147 12.083z"/><path fill="#413D9E" d="M368 451.58l-27.834 42.087 8.147 12.083z"/><path fill="#235C86" d="M264.167 443l48.166 17.833 27.833 32.834z"/><path fill="#235C86" d="M264.167 443l48.166 17.833 27.833 32.834z"/><path fill="#3E53D1" d="M316.667 515.166c.249-.416 31.646-9.416 31.646-9.416l29.562 25.625-61.208-16.209z"/><path fill="#3E53D1" d="M316.667 515.166c.249-.416 31.646-9.416 31.646-9.416l29.562 25.625-61.208-16.209z"/><path fill="#3836CF" d="M282.583 491.79s41.914 10.008 41.914 10.562-7.196 14.391-7.016 13.975c.181-.415-34.898-24.538-34.898-24.538z"/><path fill="#3836CF" d="M282.583 491.79s41.914 10.008 41.914 10.562-7.196 14.391-7.016 13.975c.181-.415-34.898-24.538-34.898-24.538z"/><path fill="#4E95C5" d="M264.167 443l20.166 50.001-82.663 57.33z"/><path fill="#4E95C5" d="M264.167 443l20.166 50.001-82.663 57.33z"/><path fill="#B384EC" d="M264.167 443L148.11 499.67l53.56 50.66z"/><path fill="#B384EC" d="M264.167 443L148.11 499.67l53.56 50.66z"/><path fill="#692FA0" d="M386.5 424.125L368 451.58l-19.688 54.17z"/><path fill="#692FA0" d="M386.5 424.125L368 451.58l-19.688 54.17z"/><path fill="#F6D57D" d="M451.625 469.25l-73.75 62.125L404 563.75z"/><path fill="#F6D57D" d="M451.625 469.25l-73.75 62.125L404 563.75z"/><path fill="#FFF6A4" d="M469.375 441.75c.541 1.564-19.063 111.625-19.063 111.625l84.688 37-65.625-148.625z"/><path fill="#FFF6A4" d="M469.375 441.75c.541 1.564-19.063 111.625-19.063 111.625l84.688 37-65.625-148.625z"/><path fill="#307AFD" d="M377.875 531.375L329.67 546 289 565.834l35.58 18.746z"/><path fill="#307AFD" d="M377.875 531.375L329.67 546 289 565.834l35.58 18.746z"/><path fill="#E181A5" d="M178.167 448.334L148.11 499.67 264.167 443l-86 5.334z"/><path fill="#E181A5" d="M178.167 448.334L148.11 499.67 264.167 443l-86 5.334z"/><path fill="#AB3E50" d="M121.83 443c-.667.332-48.83 56.17-48.83 56.17l75.11.5L121.83 443z"/><path fill="#AB3E50" d="M121.83 443c-.667.332-48.83 56.17-48.83 56.17l75.11.5L121.83 443z"/><path fill="#78284D" d="M73 499.17l17 15.5 58.11-15z"/><path fill="#78284D" d="M73 499.17l17 15.5 58.11-15z"/><path fill="#A43B7C" d="M90 514.67l58.11-15 3.39 29.747z"/><path fill="#A43B7C" d="M90 514.67l58.11-15 3.39 29.747z"/><path fill="#E66A6E" d="M90 514.67l-20.833 22.415 22.003 7.665z"/><path fill="#E66A6E" d="M90 514.67l-20.833 22.415 22.003 7.665z"/><path fill="#712264" d="M73 499.17l-3.833 37.915L90 514.67z"/><path fill="#712264" d="M73 499.17l-3.833 37.915L90 514.67z"/><path fill="#D7826E" d="M73 499.17l-17 18.16 8.667 70.42z"/><path fill="#D7826E" d="M73 499.17l-17 18.16 8.667 70.42z"/><path fill="#FFBAAA" d="M48.667 525.334L56 517.33l8.667 70.42z"/><path fill="#FFBAAA" d="M48.667 525.334L56 517.33l8.667 70.42z"/><path fill="#666E13" d="M48.667 525.334v28.334l16 34.082z"/><path fill="#666E13" d="M48.667 525.334v28.334l16 34.082z"/><path fill="#ECEE5D" d="M48.667 553.668l16 34.082 2.916 33z"/><path fill="#ECEE5D" d="M48.667 553.668l16 34.082 2.916 33z"/><path fill="#F1FD80" d="M48.667 553.668c.166 2.583 1 85.748 1 85.748l17.916-18.666-18.916-67.082z"/><path fill="#F1FD80" d="M48.667 553.668c.166 2.583 1 85.748 1 85.748l17.916-18.666-18.916-67.082z"/><path fill="#FDE9C8" d="M48.667 553.668c0 1.334-15.667 65.333-15.667 65.333l16.667 20.415-1-85.748z"/><path fill="#FDE9C8" d="M48.667 553.668c0 1.334-15.667 65.333-15.667 65.333l16.667 20.415-1-85.748z"/><path fill="#D46147" d="M69.167 537.085l22.003 7.665-26.503 43z"/><path fill="#D46147" d="M69.167 537.085l22.003 7.665-26.503 43z"/><path fill="#582659" d="M91.17 544.75l60.33-15.333-16.583 13.917z"/><path fill="#582659" d="M91.17 544.75l60.33-15.333-16.583 13.917z"/><path fill="#B54360" d="M151.5 529.417l-16.583 13.917 13.193 17.334z"/><path fill="#B54360" d="M151.5 529.417l-16.583 13.917 13.193 17.334z"/><path fill="#EE6768" d="M148.11 499.67l3.39 29.747 50.17 20.913z"/><path fill="#EE6768" d="M148.11 499.67l3.39 29.747 50.17 20.913z"/><path fill="#A03E3F" d="M134.917 543.334l-8.584 41.238 21.777-23.904z"/><path fill="#A03E3F" d="M134.917 543.334l-8.584 41.238 21.777-23.904z"/><path fill="#7A0C46" d="M134.917 543.334l-70.25 44.416 61.666-3.178z"/><path fill="#7A0C46" d="M134.917 543.334l-70.25 44.416 61.666-3.178z"/><path fill="#EA8B8C" d="M151.5 529.417l-6.5 53.917 56.67-33.004z"/><path fill="#EA8B8C" d="M151.5 529.417l-6.5 53.917 56.67-33.004z"/><path fill="#FFB585" d="M64.667 587.75L145 583.334l-17.417 53.229-62.916-48.813z"/><path fill="#FFB585" d="M64.667 587.75L145 583.334l-17.417 53.229-62.916-48.813z"/><path fill="#FCF99A" d="M67.583 620.75l-17.916 18.666 46.235 12.959z"/><path fill="#FCF99A" d="M67.583 620.75l-17.916 18.666 46.235 12.959z"/><path fill="#E2A550" d="M67.583 620.75l19.084 21.251 40.916-5.438z"/><path fill="#E2A550" d="M67.583 620.75l19.084 21.251 40.916-5.438z"/><path fill="#F86B6D" d="M145 583.334l-17.417 53.229 74.087-86.233z"/><path fill="#F86B6D" d="M145 583.334l-17.417 53.229 74.087-86.233z"/><path fill="#FF9947" d="M201.67 550.33l-39.878 46.171L187 592.667z"/><path fill="#FF9947" d="M201.67 550.33l-39.878 46.171L187 592.667z"/><path fill="#FAF24C" d="M201.67 550.33c-.667 1.291-14.67 42.337-14.67 42.337l15.834-.19-1.164-42.147z"/><path fill="#FAF24C" d="M201.67 550.33c-.667 1.291-14.67 42.337-14.67 42.337l15.834-.19-1.164-42.147z"/><path fill="#FFB547" d="M161.792 596.501l-34.209 40.062L187 592.667z"/><path fill="#FFB547" d="M161.792 596.501l-34.209 40.062L187 592.667z"/><path fill="#1B1464" d="M187 592.667l-59.417 43.895 75.251-44.085z"/><path fill="#1B1464" d="M187 592.667l-59.417 43.895 75.251-44.085z"/><path fill="#003663" d="M127.583 636.563l-20.167 24.27 27.413-19.39z"/><path fill="#003663" d="M127.583 636.563l-20.167 24.27 27.413-19.39z"/><path fill="#5D6E88" d="M86.667 642.001l9.235 10.374 31.681-15.813z"/><path fill="#5D6E88" d="M86.667 642.001l9.235 10.374 31.681-15.813z"/><path fill="#003663" d="M61.684 642.512l21.983 23.822 12.235-13.959z"/><path fill="#003663" d="M61.684 642.512l21.983 23.822 12.235-13.959z"/><path fill="#C1FFFE" d="M49.667 639.416l12.017 3.096 3.816 16.822z"/><path fill="#C1FFFE" d="M49.667 639.416l12.017 3.096 3.816 16.822z"/><path fill="#0076A3" d="M61.684 642.512l3.816 16.822 18.167 7z"/><path fill="#0076A3" d="M61.684 642.512l3.816 16.822 18.167 7z"/><path fill="#002157" d="M95.902 652.375l-12.235 13.959 23.749-5.501z"/><path fill="#002157" d="M95.902 652.375l-12.235 13.959 23.749-5.501z"/><path fill="#0D004C" d="M95.902 652.375l11.514 8.458 20.167-24.27z"/><path fill="#0D004C" d="M95.902 652.375l11.514 8.458 20.167-24.27z"/><path fill="#FFE4B5" d="M65.5 659.334l12.833 14 5.334-7z"/><path fill="#FFE4B5" d="M65.5 659.334l12.833 14 5.334-7z"/><path fill="#FFD996" d="M83.667 666.334l-5.334 7 48 3z"/><path fill="#FFD996" d="M83.667 666.334l-5.334 7 48 3z"/><path fill="#E9C052" d="M83.667 666.334l23.749-5.501 18.917 15.501z"/><path fill="#E9C052" d="M83.667 666.334l23.749-5.501 18.917 15.501z"/><path fill="#DC8F00" d="M107.416 660.833l18.917 15.501 43-32.667z"/><path fill="#DC8F00" d="M107.416 660.833l18.917 15.501 43-32.667z"/><path fill="#EBAD3C" d="M179.834 608.979l-10.5 34.688 33.996-35.037z"/><path fill="#EBAD3C" d="M179.834 608.979l-10.5 34.688 33.996-35.037z"/><path fill="#C89901" d="M179.834 608.979l23-16.502.496 16.153z"/><path fill="#C89901" d="M179.834 608.979l23-16.502.496 16.153z"/><path fill="#91A4F5" d="M193.5 618.981c-1.833.852-24.167 24.686-24.167 24.686l92.083 2.009L193.5 618.98z"/><path fill="#91A4F5" d="M193.5 618.981c-1.833.852-24.167 24.686-24.167 24.686l92.083 2.009L193.5 618.98z"/><path fill="#6DABFF" d="M289 565.834s-85.815 41.797-85.67 42.796 121.25-24.05 121.25-24.05L289 565.834z"/><path fill="#6DABFF" d="M289 565.834s-85.815 41.797-85.67 42.796 121.25-24.05 121.25-24.05L289 565.834z"/><path fill="#43A8FE" d="M203.33 608.63l38.732 24.701 82.518-48.75z"/><path fill="#43A8FE" d="M203.33 608.63l38.732 24.701 82.518-48.75z"/><path fill="#7A89E2" d="M326.5 583.375s-86.35 49.469-85.19 49.69c1.16.223 19.959 12.594 19.959 12.594l65.231-62.284z"/><path fill="#7A89E2" d="M326.5 583.375s-86.35 49.469-85.19 49.69c1.16.223 19.959 12.594 19.959 12.594l65.231-62.284z"/><path fill="#D681E4" d="M324.58 584.58s-64.497 61.847-63.164 61.096S404 563.75 404 563.75l-79.42 20.83z"/><path fill="#D681E4" d="M324.58 584.58s-64.497 61.847-63.164 61.096S404 563.75 404 563.75l-79.42 20.83z"/><path fill="#FFBDB4" d="M272.877 642.132c.667 1.696 16.498 86.638 16.498 86.638l41.75.13-58.248-86.768z"/><path fill="#FFBDB4" d="M272.877 642.132c.667 1.696 16.498 86.638 16.498 86.638l41.75.13-58.248-86.768z"/><path fill="#CD3B24" d="M272.99 642.089l21.229-5.464 36.906 92.275z"/><path fill="#CD3B24" d="M272.99 642.089l21.229-5.464 36.906 92.275z"/><path fill="#A01D0A" d="M294.172 636.64c11.13-3.056 84.644-23.32 84.644-23.32L331.125 728.9l-36.953-92.26z"/><path fill="#A01D0A" d="M294.172 636.64c11.13-3.056 84.644-23.32 84.644-23.32L331.125 728.9l-36.953-92.26z"/><path fill="#C2751C" d="M378.75 613.348L428.5 571.5M378.75 613.348L428.5 571.5"/><path fill="#FFBE3A" d="M428.5 571.5L417 728.732l42.75.168z"/><path fill="#FFBE3A" d="M428.5 571.5L417 728.732l42.75.168z"/><path fill="#FFF09D" d="M488.717 616.071c.21 1-28.967 112.83-28.967 112.83l98-.131-69.033-112.699z"/><path fill="#FFF09D" d="M488.717 616.071c.21 1-28.967 112.83-28.967 112.83l98-.131-69.033-112.699z"/><path fill="#FFD3BD" d="M428.5 571.5l21.813-18.125 38.404 62.696z"/><path fill="#FFD3BD" d="M428.5 571.5l21.813-18.125 38.404 62.696z"/><path fill="#FFE090" d="M450.313 553.375c1 0 84.687 37 84.687 37l22.75 138.395-107.438-175.395z"/><path fill="#FFE090" d="M450.313 553.375c1 0 84.687 37 84.687 37l22.75 138.395-107.438-175.395z"/><path fill="#FFEEC5" d="M535 590.375c-.917 1.333 22.75 138.395 22.75 138.395h42.875L535 590.375z"/><path fill="#FFEEC5" d="M535 590.375c-.917 1.333 22.75 138.395 22.75 138.395h42.875L535 590.375z"/><path fill="#D56F4C" d="M172.667 330.334l1-27 17.833 9.249z"/><path fill="#D56F4C" d="M172.667 330.334l1-27 17.833 9.249z"/><path fill="#CA4570" d="M148.11 560.668l-21.777 23.904L145 583.334z"/><path fill="#CA4570" d="M148.11 560.668l-21.777 23.904L145 583.334z"/><path fill="#0A1D35" d="M326.25 424.85L264.167 443l35.229 3z"/><path fill="#0A1D35" d="M326.25 424.85L264.167 443l35.229 3z"/><path fill="#0A437E" d="M323.167 502.542l16.999-8.875-76-50.667z"/><path fill="#0A437E" d="M323.167 502.542l16.999-8.875-76-50.667z"/><path fill="#FFC5A3" d="M155.407 365.917l57.723 25.916-61.3 16.542z"/><path fill="#FFC5A3" d="M155.407 365.917l57.723 25.916-61.3 16.542z"/><path fill="#C26D7C" d="M296.583 377.167L211.88 391.5 260 348.83z"/><path fill="#C26D7C" d="M296.583 377.167L211.88 391.5 260 348.83z"/><path fill="#660969" d="M401.917 342.75L458.104 404l51.23-100.875"/><path fill="#660969" d="M401.917 342.75L458.104 404l51.23-100.875"/><path fill="#660969" d="M401 397.751L458.104 404l-56.187-61.25z"/><path fill="#660969" d="M401 397.751L458.104 404l-56.187-61.25z"/><path fill="#D07D89" d="M401 397.751l26.524 37.405-.524-18.239z"/><path fill="#D07D89" d="M401 397.751l26.524 37.405-.524-18.239z"/><path fill="#FDEFC8" d="M211.88 391.5c-.75.999-60.05 16.17-60.05 16.17s-31 35.83-30 35.33 90.05-51.5 90.05-51.5z"/><path fill="#FDEFC8" d="M211.88 391.5c-.75.999-60.05 16.17-60.05 16.17s-31 35.83-30 35.33 90.05-51.5 90.05-51.5z"/><path fill="#E6696D" d="M211.88 391.5L121.83 443s26.155 57.045 26.28 56.67 63.77-108.17 63.77-108.17z"/><path fill="#E6696D" d="M211.88 391.5L121.83 443s26.155 57.045 26.28 56.67 63.77-108.17 63.77-108.17z"/><path fill="#CB5E7C" d="M211.88 391.5l52.287 51.5-86 5.334z"/><path fill="#CB5E7C" d="M211.88 391.5l52.287 51.5-86 5.334z"/><path fill="#DB8994" d="M211.88 391.5l52.287 51.5 19.42-48.41z"/><path fill="#DB8994" d="M211.88 391.5l52.287 51.5 19.42-48.41z"/><path fill="#CD715F" d="M296.583 377.167L211.88 391.5l69.537 6z"/><path fill="#CD715F" d="M296.583 377.167L211.88 391.5l69.537 6z"/><path fill="#026883" d="M323.167 502.542l16.999-8.875s8.148 11.873 8.146 12.083-25.145-3.208-25.145-3.208z"/><path fill="#026883" d="M323.167 502.542l16.999-8.875s8.148 11.873 8.146 12.083-25.145-3.208-25.145-3.208z"/><path fill="#1145F2" d="M316.667 515.166l6.5-12.624s25.27 2.833 25.146 3.208-31.646 9.416-31.646 9.416z"/><path fill="#1145F2" d="M316.667 515.166l6.5-12.624s25.27 2.833 25.146 3.208-31.646 9.416-31.646 9.416z"/><path fill="#5000F0" d="M316.667 515.166c.5 0 61.208 16.209 61.208 16.209L329.67 546l-13.003-30.834z"/><path fill="#5000F0" d="M316.667 515.166c.5 0 61.208 16.209 61.208 16.209L329.67 546l-13.003-30.834z"/><path fill="#6157FF" d="M284.333 493.001s-83.288 57.204-82.663 57.33 114.997-35.165 114.997-35.165l-32.334-22.165z"/><path fill="#6157FF" d="M284.333 493.001s-83.288 57.204-82.663 57.33 114.997-35.165 114.997-35.165l-32.334-22.165z"/><path fill="#6B6EFF" d="M201.67 550.33c.79-.375 114.747-35.539 114.997-35.164S329.67 546 329.67 546l-128 4.33z"/><path fill="#6B6EFF" d="M201.67 550.33c.79-.375 114.747-35.539 114.997-35.164S329.67 546 329.67 546l-128 4.33z"/><path fill="#115FAF" d="M264.167 443c0 .094 20.166 50.001 20.166 50.001l38.833 9.541-59-59.542z"/><path fill="#115FAF" d="M264.167 443c0 .094 20.166 50.001 20.166 50.001l38.833 9.541-59-59.542z"/><path fill="#FFE090" d="M428.5 571.5l31.25 157.4 28.967-112.829z"/><path fill="#FFE090" d="M428.5 571.5l31.25 157.4 28.967-112.829z"/><path fill="#C2751C" d="M417 728.732l-38.25-115.384L428.5 571.5z"/><path fill="#C2751C" d="M417 728.732l-38.25-115.384L428.5 571.5z"/><path fill="#C44532" d="M378.75 613.348L331.125 728.9l85.875-.168z"/><path fill="#C44532" d="M378.75 613.348L331.125 728.9l85.875-.168z"/><path fill="#F9B94A" d="M377.875 531.518l-53.295 53.205 79.42-20.83z"/><path fill="#F9B94A" d="M377.875 531.518l-53.295 53.205 79.42-20.83z"/><path fill="#1D1293" d="M127.583 636.563l7.246 4.88 68.005-48.966z"/><path fill="#1D1293" d="M127.583 636.563l7.246 4.88 68.005-48.966z"/><path fill="#320024" d="M91.17 544.75l43.747-1.416-70.25 44.416z"/><path fill="#320024" d="M91.17 544.75l43.747-1.416-70.25 44.416z"/><path fill="#FFC65E" d="M107.416 660.833l72.418-51.854-10.5 34.688z"/><path fill="#FFC65E" d="M107.416 660.833l72.418-51.854-10.5 34.688z"/><path fill="#96ADFF" d="M329.67 546l-128 4.33 1.66 58.3z"/><path fill="#96ADFF" d="M329.67 546l-128 4.33 1.66 58.3z"/><path fill="#FDBB99" d="M403.986 562.5c-.5.25-25.236 50.848-25.236 50.848l71.563-59.973-46.327 9.125z"/><path fill="#FDBB99" d="M403.986 562.5c-.5.25-25.236 50.848-25.236 50.848l71.563-59.973-46.327 9.125z"/><path fill="#FAFB96" d="M451.625 469.25c-.333 1.75-48.57 95.167-47.625 94.5s46.313-10.375 46.313-10.375l1.312-84.125z"/><path fill="#FAFB96" d="M451.625 469.25c-.333 1.75-48.57 95.167-47.625 94.5s46.313-10.375 46.313-10.375l1.312-84.125z"/><path fill="#FFA89B" d="M261.416 645.676L404 563.75l-25.25 49.598z"/><path fill="#FFA89B" d="M261.416 645.676L404 563.75l-25.25 49.598z"/><path fill="#51E8ED" d="M362.25 134.5l64.75-3.833 47.75 44.833z"/><path fill="#51E8ED" d="M362.25 134.5l64.75-3.833 47.75 44.833z"/><path fill="#3F0B41" d="M401.917 342.75L458.104 404 401 397.751l.906-54.386"/><path fill="#3F0B41" d="M401.917 342.75L458.104 404 401 397.751l.906-54.386"/></svg>